<svg width="75" height="75" viewBox="0 0 75 75" fill="none" xmlns="http://www.w3.org/2000/svg">
<path d="M3 32.1746V42.8256C3 46.9293 6.33789 50.2672 10.4416 50.2672H13.4114V24.733H10.4416C6.33789 24.733 3 28.0709 3 32.1746Z" fill="white"/>
<path d="M42.2101 10.4343C41.148 9.83491 39.8383 9.85791 38.7965 10.4911L17.4702 23.4435V52.0598L38.8465 64.54C39.109 64.6929 39.3877 64.8079 39.6746 64.885C39.9614 64.9608 40.2564 65 40.5527 65C41.1345 65 41.7163 64.8498 42.2358 64.5522C43.2844 63.9501 43.9352 62.8257 43.9352 61.6188V13.3812C43.9352 12.1621 43.2736 11.0323 42.2101 10.4343Z" fill="white"/>
<path d="M50.2912 45.8791C49.1704 45.8791 48.2617 46.7877 48.2617 47.9086C48.2617 49.0294 49.1704 49.9381 50.2912 49.9381C57.1497 49.9381 62.7294 44.3584 62.7294 37.5C62.7294 30.6416 57.1497 25.0619 50.2912 25.0619C49.1704 25.0619 48.2617 25.9706 48.2617 27.0914C48.2617 28.2122 49.1704 29.1209 50.2912 29.1209C54.9115 29.1209 58.6703 32.8797 58.6703 37.5C58.6703 42.1203 54.9115 45.8791 50.2912 45.8791Z" fill="white"/>
<path d="M50.2912 15.5168C49.1704 15.5168 48.2617 16.4255 48.2617 17.5464C48.2617 18.6672 49.1704 19.5759 50.2912 19.5759C60.1745 19.5759 68.2152 27.6166 68.2152 37.4999C68.2152 47.3833 60.1745 55.424 50.2912 55.424C49.1704 55.424 48.2617 56.3327 48.2617 57.4535C48.2617 58.5744 49.1704 59.483 50.2912 59.483C62.4126 59.483 72.2742 49.6215 72.2742 37.4999C72.2742 25.3784 62.4126 15.5168 50.2912 15.5168Z" fill="white"/>
</svg>
