<svg width="75" height="75" viewBox="0 0 75 75" fill="none" xmlns="http://www.w3.org/2000/svg">
<path d="M65.1873 26.3564V14.1203C65.1873 13.933 65.1873 13.6833 65.1249 13.496C65 12.622 64.563 11.748 63.9387 11.1237C63.252 10.437 62.378 10 61.3791 10C61.1918 10 61.067 10 60.8797 10.0624L32.2872 14.37C31.2259 14.4949 30.2894 14.9943 29.6027 15.681C28.916 16.3678 28.479 17.3042 28.479 18.4279V30.7264V50.7037C28.3541 50.6413 28.2917 50.5789 28.2293 50.5789C26.294 49.143 23.672 48.269 20.8002 48.269C17.9285 48.269 15.3065 49.143 13.3712 50.5789C11.311 52.0772 10 54.2622 10 56.6345C10 59.0068 11.2486 61.1918 13.3712 62.6901C15.3065 64.126 17.9285 65 20.8002 65C23.672 65 26.294 64.126 28.2293 62.6901C30.2894 61.1918 31.6005 59.0068 31.6005 56.6345C31.6005 56.5721 31.6005 56.4472 31.6005 56.3848V32.0999L62.0658 28.1669V46.3961C62.0034 46.3337 61.941 46.3337 61.8785 46.2713C59.9432 44.8354 57.3212 43.9614 54.4495 43.9614C51.5777 43.9614 48.9557 44.8354 47.0204 46.2713C44.9603 47.7696 43.6493 49.9546 43.6493 52.3269C43.6493 54.6992 44.8978 56.8842 47.0204 58.3825C48.9557 59.8184 51.5777 60.6924 54.4495 60.6924C57.3212 60.6924 59.9432 59.8184 61.8785 58.3825C63.9387 56.8842 65.2497 54.6992 65.2497 52.3269C65.2497 52.2645 65.2497 52.1396 65.2497 52.0772V26.5437C65.1873 26.4813 65.1873 26.4188 65.1873 26.3564Z" fill="white"/>
</svg>
