<?xml version="1.0" encoding="UTF-8" standalone="no"?>
<!-- Generator: Adobe Illustrator 15.1.0, SVG Export Plug-In . SVG Version: 6.00 Build 0)  -->

<svg
   xmlns:dc="http://purl.org/dc/elements/1.1/"
   xmlns:cc="http://creativecommons.org/ns#"
   xmlns:rdf="http://www.w3.org/1999/02/22-rdf-syntax-ns#"
   xmlns:svg="http://www.w3.org/2000/svg"
   xmlns="http://www.w3.org/2000/svg"
   xmlns:sodipodi="http://sodipodi.sourceforge.net/DTD/sodipodi-0.dtd"
   xmlns:inkscape="http://www.inkscape.org/namespaces/inkscape"
   version="1.1"
   id="Layer_1"
   x="0px"
   y="0px"
   width="105px"
   height="25px"
   viewBox="0 0 105 25"
   enable-background="new 0 0 105 25"
   xml:space="preserve"
   inkscape:version="0.48.4 r9939"
   sodipodi:docname="logo.svg"><metadata
   id="metadata41"><rdf:RDF><cc:Work
       rdf:about=""><dc:format>image/svg+xml</dc:format><dc:type
         rdf:resource="http://purl.org/dc/dcmitype/StillImage" /></cc:Work></rdf:RDF></metadata><defs
   id="defs39" /><sodipodi:namedview
   pagecolor="#ffffff"
   bordercolor="#666666"
   borderopacity="1"
   objecttolerance="10"
   gridtolerance="10"
   guidetolerance="10"
   inkscape:pageopacity="0"
   inkscape:pageshadow="2"
   inkscape:window-width="739"
   inkscape:window-height="480"
   id="namedview37"
   showgrid="false"
   inkscape:zoom="3.5714286"
   inkscape:cx="52.5"
   inkscape:cy="12.5"
   inkscape:window-x="2605"
   inkscape:window-y="186"
   inkscape:window-maximized="0"
   inkscape:current-layer="g5" />
<g
   id="g3">
	<g
   id="g5">
		<g
   id="g7"
   style="fill:#ffffff;fill-opacity:1">
			<path
   fill="#D91F26"
   d="M26.778,19.104c0.67-1.178,1.235-1.78,1.702-1.836c0.455-0.036,0.701,0.439,0.747,1.443     c0.026,1.003-0.146,2.264-0.546,3.77c0.985-0.585,1.67-1.213,2.059-1.879l3.527-9.539c-1.407,1.47-3.862,2.428-7.384,2.865     c-3.131,0.393-6.712,0.348-10.715-0.145c-3.809-0.466-7.229-1.216-10.243-2.265c-3.147-1.105-5.137-2.281-5.977-3.551     l0.316,10.552c0.33,0.502,0.732,1.014,1.196,1.506c0.012-0.43,0.041-0.795,0.056-1.104c0.121-1.644,0.393-2.877,0.792-3.716     c0.414-0.849,0.833-1.032,1.29-0.583c0.447,0.456,0.783,1.422,1.022,2.893c0.227,1.487,0.284,3.038,0.164,4.672l-0.028,0.266     c0.813,0.428,1.697,0.803,2.647,1.133c0.01-0.648,0.053-1.289,0.145-1.945c0.238-1.633,0.66-2.902,1.28-3.788     c0.61-0.894,1.242-1.147,1.879-0.767c0.64,0.365,1.106,1.26,1.397,2.684c0.292,1.424,0.309,2.939,0.07,4.564l-0.044,0.355     c1.369,0.191,2.774,0.3,4.208,0.31c0.026-0.255,0.048-0.503,0.082-0.712c0.228-1.652,0.711-3.086,1.46-4.298     c0.74-1.206,1.524-1.844,2.355-1.907c0.819-0.064,1.443,0.464,1.854,1.588c0.428,1.121,0.519,2.508,0.292,4.15     c-0.027,0.238-0.072,0.486-0.118,0.742c0.965-0.166,1.854-0.355,2.664-0.576c0.054-0.254,0.118-0.502,0.189-0.73     C25.567,21.651,26.127,20.263,26.778,19.104z"
   id="path9"
   style="fill:#ffffff;fill-opacity:1" />
		</g>
		<path
   fill="#D91F26"
   d="M34.581,9.278c-0.523,3.196-8.669,4.521-18.191,2.957C6.871,10.671-0.424,6.811,0.103,3.615    c0.524-3.199,8.668-4.522,18.189-2.958C27.813,2.221,35.106,6.079,34.581,9.278z M19.903,2.014    C12.887,0.773,7.059,1.777,6.709,4.072c-0.348,2.292,5.077,5.047,12.119,6.151c7.04,1.106,13.027,0.146,13.379-2.146    C32.518,6.021,27.185,3.302,19.903,2.014z"
   id="path11"
   style="fill:#ffffff;fill-opacity:1" />
		<path
   fill="#D91F26"
   d="M30.836,9.884c-0.381,1.885-6.08,2.604-12.729,1.607c-6.652-0.994-11.735-3.33-11.353-5.213    c0.376-1.883,6.077-2.603,12.725-1.607C26.129,5.667,31.214,8.001,30.836,9.884z M20.59,5.511    c-4.942-0.709-9.146-0.201-9.395,1.136C10.95,7.984,14.75,9.64,19.688,10.35c4.94,0.708,9.146,0.199,9.393-1.138    C29.328,7.877,25.524,6.218,20.59,5.511z"
   id="path13"
   style="fill:#ffffff;fill-opacity:1" />
		<path
   fill="#D91F26"
   d="M24.54,9.946c-0.203,0.896-2.755,1.163-5.074,0.727c-2.605-0.492-4.51-1.631-4.333-2.535    c0.174-0.903,2.439-1.343,5.036-0.808C22.775,7.867,24.724,9.13,24.54,9.946z"
   id="path15"
   style="fill:#ffffff;fill-opacity:1" />
	</g>
	<g
   id="g17">
		<path
   fill="#FFFFFF"
   d="M102.895,13.144h-0.015v-0.016c-0.739-0.749-1.646-1.106-2.692-1.106c-0.977,0-1.824,0.324-2.54,0.96    c-0.716-0.636-1.529-0.947-2.509-0.947c-0.701,0-1.353,0.181-1.907,0.507c-0.521-0.245-1.154-0.407-1.92-0.49v8.765h2.606v-4.985    c0.015-0.31,0.127-0.587,0.358-0.813c0-0.018,0-0.018,0.017-0.018c0.226-0.227,0.521-0.358,0.846-0.358    c0.326,0,0.618,0.132,0.864,0.358c0.242,0.228,0.359,0.521,0.359,0.831c0,0.017,0,0.033,0,0.033v4.952h2.604v-4.952    c0,0,0-0.017,0-0.033v-0.033v-0.017c0-0.324,0.129-0.584,0.36-0.813v0.016c0.229-0.244,0.52-0.359,0.86-0.359    c0.327,0,0.62,0.115,0.852,0.344c0.013,0,0.013,0,0.013,0.016c0.227,0.229,0.344,0.521,0.344,0.847V20.8H104v-4.968    C104,14.788,103.642,13.894,102.895,13.144z"
   id="path19" />
		<path
   fill="#FFFFFF"
   d="M87.603,17.004c0,0.327-0.117,0.587-0.347,0.815l-0.019,0.016c-0.24,0.244-0.499,0.359-0.846,0.359    c-0.34,0-0.617-0.115-0.863-0.359v-0.016c-0.244-0.229-0.357-0.521-0.357-0.848v-4.95h-2.608v4.95    c0,1.059,0.377,1.955,1.127,2.705c0.488,0.486,1.026,0.814,1.628,0.977c0.2,0.049,0.411,0.1,0.622,0.113    c0.112,0.017,0.244,0.033,0.373,0.033h0.196c0.113,0,0.229-0.017,0.341-0.033c0.229-0.014,0.423-0.064,0.636-0.113    c0.276-0.096,0.572-0.211,0.833-0.357c0.62,0.309,1.238,0.471,1.885,0.504v-8.778h-2.601V17.004z"
   id="path21" />
		<path
   fill="#FFFFFF"
   d="M80.367,8.41c-0.405,0-0.733,0.164-1.025,0.439c-0.277,0.293-0.44,0.62-0.44,1.026    c0,0.409,0.163,0.767,0.44,1.043c0.292,0.294,0.62,0.425,1.025,0.425c0.407,0,0.768-0.13,1.043-0.425    c0.292-0.276,0.422-0.634,0.422-1.043c0-0.406-0.13-0.732-0.422-1.026C81.135,8.574,80.774,8.41,80.367,8.41z"
   id="path23" />
		<path
   fill="#FFFFFF"
   d="M75.409,12.404c-0.524-0.229-1.102-0.361-1.743-0.361c-1.218,0-2.234,0.429-3.087,1.3    c-0.855,0.836-1.283,1.873-1.283,3.07c0,1.215,0.428,2.251,1.283,3.089l0.014,0.017c0.493,0.492,1.034,0.84,1.657,1.051    c0.101,0.033,0.182,0.066,0.282,0.082c0.231,0.051,0.477,0.1,0.723,0.115c0.115,0.017,0.229,0.033,0.33,0.033    c0.015,0,0.064,0,0.081,0c0.151,0,0.26-0.017,0.41-0.033c0.249-0.016,0.493-0.064,0.725-0.115c0.394-0.099,0.752-0.245,1.1-0.475    c0.574,0.329,1.282,0.525,2.137,0.623V8.248L75.409,9.2V12.404z M75.409,16.479c-0.017,0.459-0.185,0.837-0.512,1.166    l-0.013,0.017c-0.332,0.346-0.726,0.509-1.219,0.509c-0.492,0-0.888-0.163-1.234-0.509v-0.017    c-0.326-0.329-0.508-0.74-0.508-1.232c0-0.477,0.182-0.887,0.508-1.23c0.347-0.33,0.742-0.51,1.234-0.51    c0.493,0,0.887,0.164,1.219,0.51l0.013,0.016c0.327,0.312,0.495,0.705,0.512,1.184V16.479z"
   id="path25" />
		<path
   fill="#FFFFFF"
   d="M79.082,12.021V20.8h2.602v-8.778c-0.373,0.244-0.813,0.373-1.316,0.373    C79.896,12.395,79.474,12.265,79.082,12.021z"
   id="path27" />
		<path
   fill="#FFFFFF"
   d="M66.234,12.404c-0.543-0.229-1.118-0.361-1.742-0.361c-0.312,0-0.608,0.034-0.869,0.082    c-0.839,0.163-1.592,0.558-2.218,1.218c-0.147,0.146-0.282,0.276-0.409,0.442c-0.035,0.048-0.068,0.097-0.101,0.146    c-0.509,0.724-0.79,1.546-0.79,2.481c0,0.328,0.051,0.641,0.118,0.937c0.114,0.575,0.343,1.101,0.672,1.577    c0.145,0.198,0.313,0.396,0.51,0.575v0.017c0.493,0.492,1.049,0.84,1.657,1.051c0.101,0.033,0.201,0.066,0.295,0.082    c0.081,0.034,0.182,0.034,0.266,0.068c0.148,0.016,0.311,0.047,0.457,0.047c0.119,0.017,0.217,0.033,0.332,0.033    c0.017,0,0.048,0,0.08,0c0.133,0,0.265-0.017,0.398-0.033c0.26-0.016,0.489-0.064,0.721-0.115c0.409-0.099,0.79-0.262,1.131-0.475    c0.644,0.346,1.348,0.559,2.122,0.606v-8.756h-2.63V12.404z M66.234,16.479c-0.015,0.459-0.18,0.837-0.51,1.166l-0.033,0.017    c-0.326,0.346-0.722,0.509-1.199,0.509c-0.326,0-0.621-0.082-0.869-0.229c-0.133-0.066-0.247-0.182-0.359-0.28v-0.017    c-0.348-0.329-0.529-0.74-0.529-1.232c0-0.477,0.182-0.887,0.529-1.23c0.112-0.117,0.227-0.201,0.359-0.281    c0.248-0.148,0.543-0.229,0.869-0.229c0.478,0,0.873,0.164,1.199,0.51l0.033,0.016c0.33,0.312,0.495,0.705,0.51,1.184V16.479z"
   id="path29" />
		<path
   fill="#FFFFFF"
   d="M49.431,12.522c-0.573-0.326-1.238-0.489-1.958-0.521V20.8h2.605v-5.102c0-0.309,0.132-0.57,0.36-0.732    c0.456-0.26,1.109-0.408,2.003-0.392h0.082v-2.607h-0.049C51.203,11.953,50.193,12.133,49.431,12.522z"
   id="path31" />
		<path
   fill="#FFFFFF"
   d="M40.222,8.325L35.338,20.8h2.799l0.964-2.427h4.529l0.96,2.427h2.801L42.491,8.325H40.222z M40.108,15.768    l1.255-3.177l1.24,3.177H40.108z"
   id="path33" />
		<polygon
   fill="#FFFFFF"
   points="61.169,12.043 61.188,12.027 57.88,12.027 55.762,14.765 55.762,9.22 53.155,8.258 53.155,20.8     55.762,20.8 55.762,17.987 57.949,20.8 61.26,20.8 57.813,16.376   "
   id="polygon35" />
	</g>
</g>
</svg>